<?xml version="1.0" encoding="UTF-8"?>
<!DOCTYPE svg PUBLIC "-//W3C//DTD SVG 1.1//EN" "http://www.w3.org/Graphics/SVG/1.1/DTD/svg11.dtd">
<svg xmlns="http://www.w3.org/2000/svg" version="1.1" width="151px" height="151px" style="shape-rendering:geometricPrecision; text-rendering:geometricPrecision; image-rendering:optimizeQuality; fill-rule:evenodd; clip-rule:evenodd" xmlns:xlink="http://www.w3.org/1999/xlink">
<g><path style="opacity:0.188" fill="#69808d" d="M 65.5,3.5 C 70.5,3.5 75.5,3.5 80.5,3.5C 80.5,4.16667 80.5,4.83333 80.5,5.5C 75.3322,5.06624 70.3322,4.39957 65.5,3.5 Z"/></g>
<g><path style="opacity:0.814" fill="#3c4549" d="M 80.5,3.5 C 111.414,6.2469 132.914,21.9136 145,50.5C 156.196,91.7879 142.363,122.288 103.5,142C 95.4361,145.011 87.1028,146.511 78.5,146.5C 78.8333,145.833 79.1667,145.167 79.5,144.5C 85.6435,143.631 91.6435,142.131 97.5,140C 98.756,139.583 99.4226,138.75 99.5,137.5C 100.925,139.031 101.591,138.698 101.5,136.5C 107.652,135.906 112.652,132.906 116.5,127.5C 116.938,128.506 117.604,128.506 118.5,127.5C 119.5,127.167 120.167,126.5 120.5,125.5C 121.458,124.038 122.624,122.705 124,121.5C 124.495,119.527 124.662,117.527 124.5,115.5C 125.268,116.263 125.768,117.263 126,118.5C 126.497,115.854 126.664,113.187 126.5,110.5C 127.309,112.292 127.809,114.292 128,116.5C 146.25,87.8083 145.917,59.475 127,31.5C 114.939,16.7187 99.4391,8.05203 80.5,5.5C 80.5,4.83333 80.5,4.16667 80.5,3.5 Z"/></g>
<g><path style="opacity:0.999" fill="#9cd3ee" d="M 65.5,3.5 C 70.3322,4.39957 75.3322,5.06624 80.5,5.5C 99.4391,8.05203 114.939,16.7187 127,31.5C 145.917,59.475 146.25,87.8083 128,116.5C 127.809,114.292 127.309,112.292 126.5,110.5C 125.962,108.883 125.629,107.216 125.5,105.5C 140.487,69.8643 131.82,41.6977 99.5,21C 98.2341,20.6905 97.0674,20.1905 96,19.5C 95.6012,19.7284 95.4346,20.0618 95.5,20.5C 89.2024,13.0164 81.2024,9.34972 71.5,9.5C 70.036,8.84014 68.3693,8.50681 66.5,8.5C 63.5143,8.38165 60.8476,9.04832 58.5,10.5C 52.2532,12.2748 47.5865,15.9414 44.5,21.5C 44.44,20.9569 44.1067,20.6236 43.5,20.5C 17.8391,34.8226 6.83913,56.4893 10.5,85.5C 11.0138,87.3664 11.6805,89.1997 12.5,91C 9.3493,99.3311 10.1826,107.164 15,114.5C 14.8429,112.169 14.3429,109.836 13.5,107.5C 13.0949,103.952 13.5949,100.619 15,97.5C 15.3333,100.167 15.6667,102.833 16,105.5C 16.3826,106.056 16.8826,106.389 17.5,106.5C 20.0616,112.128 21.3949,118.128 21.5,124.5C 21.5,124.833 21.5,125.167 21.5,125.5C 9.41884,114.005 2.0855,100.005 -0.5,83.5C -0.5,77.8333 -0.5,72.1667 -0.5,66.5C 0.434475,65.4324 0.767809,64.099 0.5,62.5C 2.76518,58.2421 4.59851,53.5754 6,48.5C 8.76636,41.9524 12.2664,35.9524 16.5,30.5C 28.7834,14.5175 45.1167,5.51755 65.5,3.5 Z"/></g>
<g><path style="opacity:1" fill="#607e8c" d="M 71.5,9.5 C 67.1311,9.46716 62.7978,9.80049 58.5,10.5C 60.8476,9.04832 63.5143,8.38165 66.5,8.5C 68.3693,8.50681 70.036,8.84014 71.5,9.5 Z"/></g>
<g><path style="opacity:1" fill="#b6def0" d="M 44.5,21.5 C 43.6463,27.1209 43.313,32.7876 43.5,38.5C 39.9385,38.9652 36.6051,40.1319 33.5,42C 18.3082,52.5514 10.6416,67.0514 10.5,85.5C 6.83913,56.4893 17.8391,34.8226 43.5,20.5C 44.1067,20.6236 44.44,20.9569 44.5,21.5 Z"/></g>
<g><path style="opacity:1" fill="#b5dff3" d="M 125.5,105.5 C 123.255,102.68 121.255,99.6803 119.5,96.5C 128.816,69.9569 122.316,48.2903 100,31.5C 99.8091,33.7078 99.3091,35.7078 98.5,37.5C 99.0057,31.5314 98.0057,25.8647 95.5,20.5C 95.4346,20.0618 95.6012,19.7284 96,19.5C 97.0674,20.1905 98.2341,20.6905 99.5,21C 131.82,41.6977 140.487,69.8643 125.5,105.5 Z"/></g>
<g><path style="opacity:1" fill="#d2ebf6" d="M 119.5,96.5 C 116.553,95.2195 114.219,93.2195 112.5,90.5C 117.476,72.8415 113.309,57.8415 100,45.5C 98.6974,45.9783 97.5307,46.645 96.5,47.5C 97.2937,44.198 97.9604,40.8647 98.5,37.5C 99.3091,35.7078 99.8091,33.7078 100,31.5C 122.316,48.2903 128.816,69.9569 119.5,96.5 Z"/></g>
<g><path style="opacity:1" fill="#e5f0f5" d="M 112.5,90.5 C 111.542,90.0472 110.708,89.3805 110,88.5C 107.803,81.2965 103.636,75.4632 97.5,71C 95.0912,70.0653 92.5912,69.5653 90,69.5C 86.5045,69.6991 83.3378,70.5324 80.5,72C 85.7193,63.7195 91.0527,55.5529 96.5,47.5C 97.5307,46.645 98.6974,45.9783 100,45.5C 113.309,57.8415 117.476,72.8415 112.5,90.5 Z"/></g>
<g><path style="opacity:0.024" fill="#bec6d7" d="M 16.5,30.5 C 12.2664,35.9524 8.76636,41.9524 6,48.5C 4.59851,53.5754 2.76518,58.2421 0.5,62.5C 2.67983,50.1402 8.01316,39.4735 16.5,30.5 Z"/></g>
<g><path style="opacity:1" fill="#1d1c1a" d="M 71.5,9.5 C 81.2024,9.34972 89.2024,13.0164 95.5,20.5C 98.0057,25.8647 99.0057,31.5314 98.5,37.5C 97.9604,40.8647 97.2937,44.198 96.5,47.5C 91.0527,55.5529 85.7193,63.7195 80.5,72C 83.3378,70.5324 86.5045,69.6991 90,69.5C 92.5912,69.5653 95.0912,70.0653 97.5,71C 103.636,75.4632 107.803,81.2965 110,88.5C 110.708,89.3805 111.542,90.0472 112.5,90.5C 114.219,93.2195 116.553,95.2195 119.5,96.5C 121.255,99.6803 123.255,102.68 125.5,105.5C 125.629,107.216 125.962,108.883 126.5,110.5C 126.664,113.187 126.497,115.854 126,118.5C 125.768,117.263 125.268,116.263 124.5,115.5C 124.737,111.59 123.904,107.923 122,104.5C 113.184,95.3545 105.517,85.3545 99,74.5C 96.0052,71.7352 92.5052,70.9019 88.5,72C 82.5641,73.7108 78.0641,77.2108 75,82.5C 74.5045,84.4727 74.3379,86.4727 74.5,88.5C 74.1583,89.3382 73.4916,89.6716 72.5,89.5C 71.2243,86.9697 71.2243,84.3031 72.5,81.5C 65,80.342 59,76.6753 54.5,70.5C 52.3972,74.106 49.7306,77.2727 46.5,80C 35.3059,83.8699 26.4726,90.7032 20,100.5C 19.3333,103.5 19.3333,106.5 20,109.5C 21.6966,115.222 23.5299,120.888 25.5,126.5C 25.5654,126.938 25.3988,127.272 25,127.5C 23.9609,126.29 22.7942,125.29 21.5,124.5C 21.3949,118.128 20.0616,112.128 17.5,106.5C 15.7063,100.187 16.373,94.1868 19.5,88.5C 20.5964,86.8968 21.9297,85.3968 23.5,84C 21.1589,83.8319 19.8256,84.9986 19.5,87.5C 12.8437,92.8424 10.8437,99.5091 13.5,107.5C 14.3429,109.836 14.8429,112.169 15,114.5C 10.1826,107.164 9.3493,99.3311 12.5,91C 11.6805,89.1997 11.0138,87.3664 10.5,85.5C 10.6416,67.0514 18.3082,52.5514 33.5,42C 36.6051,40.1319 39.9385,38.9652 43.5,38.5C 43.313,32.7876 43.6463,27.1209 44.5,21.5C 47.5865,15.9414 52.2532,12.2748 58.5,10.5C 62.7978,9.80049 67.1311,9.46716 71.5,9.5 Z"/></g>
<g><path style="opacity:1" fill="#8f8487" d="M 52.5,61.5 C 53.3764,61.3691 54.0431,61.7025 54.5,62.5C 52.5875,66.6597 50.4209,70.6597 48,74.5C 41.9173,78.4586 35.7506,82.2919 29.5,86C 25.2477,89.5813 21.7477,93.748 19,98.5C 21.2231,92.069 24.5564,86.069 29,80.5C 36.1667,75.3333 43.3333,70.1667 50.5,65C 51.8228,64.1841 52.4894,63.0174 52.5,61.5 Z"/></g>
<g><path style="opacity:1" fill="#93878a" d="M 72.5,20.5 C 72.8333,20.5 73.1667,20.5 73.5,20.5C 73.8064,23.3854 73.4731,26.0521 72.5,28.5C 66.6896,41.0709 58.3563,52.5709 47.5,63C 35.5175,69.2415 24.6842,77.0748 15,86.5C 14.4024,82.9473 15.0691,79.614 17,76.5C 20.4651,72.0332 24.2984,67.8666 28.5,64C 37.665,58.9186 46.665,53.5852 55.5,48C 60.3936,44.4836 63.5603,39.9836 65,34.5C 62.2031,38.2988 59.0364,41.7988 55.5,45C 41.0419,50.6438 28.5419,59.1438 18,70.5C 15.4306,74.0952 13.7639,78.0952 13,82.5C 13.0609,76.2934 14.3943,70.2934 17,64.5C 23.3204,54.5119 31.8204,47.0119 42.5,42C 49.5,39 56.5,36 63.5,33C 68.7037,30.3138 71.7037,26.1471 72.5,20.5 Z"/></g>
<g><path style="opacity:1" fill="#d4c184" d="M 72.5,28.5 C 73.4731,26.0521 73.8064,23.3854 73.5,20.5C 73.369,19.7611 73.5357,19.0944 74,18.5C 74.6776,23.25 76.3443,27.5833 79,31.5C 83.1896,34.9336 87.1896,38.6002 91,42.5C 93.0708,47.164 92.4041,51.4973 89,55.5C 84.6667,61.8333 80.3333,68.1667 76,74.5C 74.2349,76.7744 72.0682,78.4411 69.5,79.5C 62.9514,76.4519 58.2847,71.6186 55.5,65C 57.6023,57.2079 61.1023,50.0412 66,43.5C 68.7293,38.7117 70.896,33.7117 72.5,28.5 Z"/></g>
<g><path style="opacity:1" fill="#928689" d="M 75.5,15.5 C 93.4752,18.1157 99.8085,28.1157 94.5,45.5C 90.5708,39.4014 86.0708,33.7348 81,28.5C 78.6028,24.376 76.7694,20.0427 75.5,15.5 Z"/></g>
<g><path style="opacity:1" fill="#94888b" d="M 72.5,20.5 C 70.7869,23.7255 68.4536,26.5588 65.5,29C 59.1305,32.3539 52.4638,34.8539 45.5,36.5C 45.5751,18.7041 54.4084,11.3708 72,14.5C 72.7431,12.3553 73.5765,12.1886 74.5,14C 73.3906,16.0466 72.7239,18.2133 72.5,20.5 Z"/></g>
<g><path style="opacity:1" fill="#d5c185" d="M 72.5,89.5 C 73.5434,92.0562 75.2101,94.2228 77.5,96C 82.6999,100.035 88.0333,103.869 93.5,107.5C 92.7515,109.332 91.7515,110.999 90.5,112.5C 88.6729,110.5 87.0062,108.333 85.5,106C 84.552,105.517 83.552,105.351 82.5,105.5C 82.5,104.5 82.5,103.5 82.5,102.5C 79.0933,103.174 77.76,105.341 78.5,109C 78.7712,112.989 79.9379,116.489 82,119.5C 73.3974,124.55 65.2307,130.217 57.5,136.5C 56.914,136.291 56.414,135.957 56,135.5C 56.9978,127.339 54.4978,120.506 48.5,115C 47.8333,114.333 47.1667,114.333 46.5,115C 49.9326,123.132 53.2659,131.299 56.5,139.5C 67.6592,131.42 78.9925,123.587 90.5,116C 93.4532,112.592 96.2865,109.092 99,105.5C 99.4186,106.672 100.085,107.672 101,108.5C 103.577,106.345 105.411,103.679 106.5,100.5C 108.115,105.571 107.281,110.238 104,114.5C 93.2269,121.773 84.7269,131.106 78.5,142.5C 77.5,142.833 76.8333,143.5 76.5,144.5C 73.0588,145.097 69.7254,145.763 66.5,146.5C 51.6772,145.244 38.6772,139.911 27.5,130.5C 27.3404,128.847 26.6737,127.514 25.5,126.5C 23.5299,120.888 21.6966,115.222 20,109.5C 19.3333,106.5 19.3333,103.5 20,100.5C 26.4726,90.7032 35.3059,83.8699 46.5,80C 49.7306,77.2727 52.3972,74.106 54.5,70.5C 59,76.6753 65,80.342 72.5,81.5C 71.2243,84.3031 71.2243,86.9697 72.5,89.5 Z"/></g>
<g><path style="opacity:1" fill="#ecdcab" d="M 124.5,115.5 C 124.662,117.527 124.495,119.527 124,121.5C 122.624,122.705 121.458,124.038 120.5,125.5C 119.833,123.833 119.167,122.167 118.5,120.5C 118.539,119.244 118.039,118.244 117,117.5C 116.502,120.817 116.335,124.15 116.5,127.5C 112.652,132.906 107.652,135.906 101.5,136.5C 98.268,133.434 95.6013,129.934 93.5,126C 93.8333,125.5 94.1667,125 94.5,124.5C 97.1786,126.687 100.179,128.187 103.5,129C 105.019,130.351 106.352,131.851 107.5,133.5C 107.833,133.167 108.167,132.833 108.5,132.5C 106.539,127.984 105.205,123.317 104.5,118.5C 104.5,117.833 104.5,117.167 104.5,116.5C 109.676,112.8 111.509,107.8 110,101.5C 109.059,99.9386 107.892,98.6053 106.5,97.5C 104.915,99.7059 103.415,102.039 102,104.5C 101.517,103.552 101.351,102.552 101.5,101.5C 98.9158,101.569 96.9158,102.735 95.5,105C 94.1667,105.667 92.8333,105.667 91.5,105C 88.084,100.913 84.084,97.5797 79.5,95C 77.4497,93.0349 75.783,90.8682 74.5,88.5C 74.3379,86.4727 74.5045,84.4727 75,82.5C 78.0641,77.2108 82.5641,73.7108 88.5,72C 92.5052,70.9019 96.0052,71.7352 99,74.5C 105.517,85.3545 113.184,95.3545 122,104.5C 123.904,107.923 124.737,111.59 124.5,115.5 Z"/></g>
<g><path style="opacity:1" fill="#6c787c" d="M 19.5,88.5 C 19.5,88.1667 19.5,87.8333 19.5,87.5C 19.8256,84.9986 21.1589,83.8319 23.5,84C 21.9297,85.3968 20.5964,86.8968 19.5,88.5 Z"/></g>
<g><path style="opacity:1" fill="#9dc3d0" d="M 19.5,87.5 C 19.5,87.8333 19.5,88.1667 19.5,88.5C 16.373,94.1868 15.7063,100.187 17.5,106.5C 16.8826,106.389 16.3826,106.056 16,105.5C 15.6667,102.833 15.3333,100.167 15,97.5C 13.5949,100.619 13.0949,103.952 13.5,107.5C 10.8437,99.5091 12.8437,92.8424 19.5,87.5 Z"/></g>
<g><path style="opacity:1" fill="#24221e" d="M 74.5,88.5 C 75.783,90.8682 77.4497,93.0349 79.5,95C 84.084,97.5797 88.084,100.913 91.5,105C 92.8333,105.667 94.1667,105.667 95.5,105C 96.9158,102.735 98.9158,101.569 101.5,101.5C 101.351,102.552 101.517,103.552 102,104.5C 103.415,102.039 104.915,99.7059 106.5,97.5C 107.892,98.6053 109.059,99.9386 110,101.5C 111.509,107.8 109.676,112.8 104.5,116.5C 103.5,116.833 102.833,117.5 102.5,118.5C 94.736,120.806 94.736,123.473 102.5,126.5C 103.298,126.043 103.631,125.376 103.5,124.5C 103.205,122.265 103.539,120.265 104.5,118.5C 105.205,123.317 106.539,127.984 108.5,132.5C 108.167,132.833 107.833,133.167 107.5,133.5C 106.352,131.851 105.019,130.351 103.5,129C 100.179,128.187 97.1786,126.687 94.5,124.5C 94.1667,125 93.8333,125.5 93.5,126C 95.6013,129.934 98.268,133.434 101.5,136.5C 101.591,138.698 100.925,139.031 99.5,137.5C 96.5198,134.856 93.5198,132.189 90.5,129.5C 87.1857,134.48 83.1857,138.814 78.5,142.5C 84.7269,131.106 93.2269,121.773 104,114.5C 107.281,110.238 108.115,105.571 106.5,100.5C 105.411,103.679 103.577,106.345 101,108.5C 100.085,107.672 99.4186,106.672 99,105.5C 96.2865,109.092 93.4532,112.592 90.5,116C 78.9925,123.587 67.6592,131.42 56.5,139.5C 53.2659,131.299 49.9326,123.132 46.5,115C 47.1667,114.333 47.8333,114.333 48.5,115C 54.4978,120.506 56.9978,127.339 56,135.5C 56.414,135.957 56.914,136.291 57.5,136.5C 65.2307,130.217 73.3974,124.55 82,119.5C 79.9379,116.489 78.7712,112.989 78.5,109C 77.76,105.341 79.0933,103.174 82.5,102.5C 82.5,103.5 82.5,104.5 82.5,105.5C 83.552,105.351 84.552,105.517 85.5,106C 87.0062,108.333 88.6729,110.5 90.5,112.5C 91.7515,110.999 92.7515,109.332 93.5,107.5C 88.0333,103.869 82.6999,100.035 77.5,96C 75.2101,94.2228 73.5434,92.0562 72.5,89.5C 73.4916,89.6716 74.1583,89.3382 74.5,88.5 Z"/></g>
<g><path style="opacity:1" fill="#dacda0" d="M 80.5,105.5 C 81.3748,107.568 82.5415,109.568 84,111.5C 84.3076,110.692 84.8076,110.025 85.5,109.5C 89.6369,112.977 89.3036,115.643 84.5,117.5C 81.3797,114.139 80.0464,110.139 80.5,105.5 Z"/></g>
<g><path style="opacity:1" fill="#ecdfae" d="M 102.5,118.5 C 102.205,120.735 102.539,122.735 103.5,124.5C 103.631,125.376 103.298,126.043 102.5,126.5C 94.736,123.473 94.736,120.806 102.5,118.5 Z"/></g>
<g><path style="opacity:1" fill="#7e765e" d="M 104.5,116.5 C 104.5,117.167 104.5,117.833 104.5,118.5C 103.539,120.265 103.205,122.265 103.5,124.5C 102.539,122.735 102.205,120.735 102.5,118.5C 102.833,117.5 103.5,116.833 104.5,116.5 Z"/></g>
<g><path style="opacity:1" fill="#948b73" d="M 118.5,120.5 C 119.167,122.167 119.833,123.833 120.5,125.5C 120.167,126.5 119.5,127.167 118.5,127.5C 118.5,125.167 118.5,122.833 118.5,120.5 Z"/></g>
<g><path style="opacity:1" fill="#181716" d="M 118.5,120.5 C 118.5,122.833 118.5,125.167 118.5,127.5C 117.604,128.506 116.938,128.506 116.5,127.5C 116.335,124.15 116.502,120.817 117,117.5C 118.039,118.244 118.539,119.244 118.5,120.5 Z"/></g>
<g><path style="opacity:0.451" fill="#685958" d="M 21.5,124.5 C 22.7942,125.29 23.9609,126.29 25,127.5C 25.3988,127.272 25.5654,126.938 25.5,126.5C 26.6737,127.514 27.3404,128.847 27.5,130.5C 24.8908,129.557 22.8908,127.89 21.5,125.5C 21.5,125.167 21.5,124.833 21.5,124.5 Z"/></g>
<g><path style="opacity:1" fill="#9cd5ee" d="M 99.5,137.5 C 99.4226,138.75 98.756,139.583 97.5,140C 91.6435,142.131 85.6435,143.631 79.5,144.5C 78.5,144.5 77.5,144.5 76.5,144.5C 76.8333,143.5 77.5,142.833 78.5,142.5C 83.1857,138.814 87.1857,134.48 90.5,129.5C 93.5198,132.189 96.5198,134.856 99.5,137.5 Z"/></g>
<g><path style="opacity:0.165" fill="#717167" d="M 76.5,144.5 C 77.5,144.5 78.5,144.5 79.5,144.5C 79.1667,145.167 78.8333,145.833 78.5,146.5C 74.5,146.5 70.5,146.5 66.5,146.5C 69.7254,145.763 73.0588,145.097 76.5,144.5 Z"/></g>
</svg>
