<?xml version="1.0" encoding="UTF-8"?>
<!DOCTYPE svg PUBLIC "-//W3C//DTD SVG 1.1//EN" "http://www.w3.org/Graphics/SVG/1.1/DTD/svg11.dtd">
<svg xmlns="http://www.w3.org/2000/svg" version="1.1" width="500px" height="500px" style="shape-rendering:geometricPrecision; text-rendering:geometricPrecision; image-rendering:optimizeQuality; fill-rule:evenodd; clip-rule:evenodd" xmlns:xlink="http://www.w3.org/1999/xlink">
<g><path style="opacity:1" fill="#fefefe" d="M -0.5,-0.5 C 166.167,-0.5 332.833,-0.5 499.5,-0.5C 499.5,166.167 499.5,332.833 499.5,499.5C 332.833,499.5 166.167,499.5 -0.5,499.5C -0.5,332.833 -0.5,166.167 -0.5,-0.5 Z"/></g>
<g><path style="opacity:1" fill="#616e75" d="M 148.5,122.5 C 156.997,121.756 164.997,123.089 172.5,126.5C 171.127,126.343 169.793,126.51 168.5,127C 170.432,128.459 172.432,129.625 174.5,130.5C 165.859,127.619 157.192,124.952 148.5,122.5 Z"/></g>
<g><path style="opacity:1" fill="#9cd4ef" d="M 148.5,122.5 C 157.192,124.952 165.859,127.619 174.5,130.5C 176.179,130.892 177.846,131.392 179.5,132C 187.694,136.926 195.694,142.093 203.5,147.5C 206.833,151.5 210.5,155.167 214.5,158.5C 229.35,174.697 238.35,193.697 241.5,215.5C 241.642,227.518 241.309,239.518 240.5,251.5C 237.118,267.253 230.785,281.586 221.5,294.5C 220.832,292.031 220.165,289.698 219.5,287.5C 218.216,283.309 216.55,279.309 214.5,275.5C 215.458,275.953 216.292,276.619 217,277.5C 227.036,257.645 230.369,236.645 227,214.5C 219.825,182.653 201.491,159.653 172,145.5C 171.536,146.094 171.369,146.761 171.5,147.5C 167.702,144.204 164.036,140.704 160.5,137C 158.148,136.76 156.148,135.927 154.5,134.5C 151.808,131.819 148.475,130.486 144.5,130.5C 135.009,129.342 125.342,129.175 115.5,130C 114.944,130.383 114.611,130.883 114.5,131.5C 111.289,132.935 107.955,134.102 104.5,135C 101.984,137.683 99.3174,140.183 96.5,142.5C 95.8728,143.417 95.5394,144.417 95.5,145.5C 94.1429,146.59 93.1429,147.924 92.5,149.5C 92.38,148.414 91.7133,147.747 90.5,147.5C 64.3832,161.348 47.5498,182.682 40,211.5C 38.4493,220.304 38.2826,228.971 39.5,237.5C 39.1086,244.651 39.7753,251.651 41.5,258.5C 41.5,259.167 41.5,259.833 41.5,260.5C 40.7784,260.918 40.2784,261.584 40,262.5C 39.1849,267.352 39.3516,272.019 40.5,276.5C 41.5511,280.827 42.7177,285.16 44,289.5C 45,290.5 46,291.5 47,292.5C 47.4069,288.462 46.4069,284.795 44,281.5C 43.5012,277.514 43.3345,273.514 43.5,269.5C 43.2155,267.585 43.5489,265.919 44.5,264.5C 46.0652,262.491 47.0652,260.157 47.5,257.5C 47.7376,255.596 48.7376,254.262 50.5,253.5C 53.523,250.822 54.1897,251.488 52.5,255.5C 51.1077,257.273 49.941,259.273 49,261.5C 48.3333,266.5 48.3333,271.5 49,276.5C 49.2321,277.737 49.7321,278.737 50.5,279.5C 51.1667,280.5 51.8333,281.5 52.5,282.5C 52.1281,285.022 52.9614,287.022 55,288.5C 55.1491,294.972 55.9824,301.305 57.5,307.5C 56.5041,307.586 55.6708,307.252 55,306.5C 52.0355,301.57 48.3688,297.237 44,293.5C 41.5456,287.037 38.2122,281.037 34,275.5C 23.655,247.962 22.8216,220.129 31.5,192C 35.1553,185.188 38.6553,178.355 42,171.5C 45.6961,168.464 48.6961,164.797 51,160.5C 55.3941,155.439 60.2274,150.606 65.5,146C 67.2464,145.529 68.913,144.862 70.5,144C 71.8333,141.333 73.8333,139.333 76.5,138C 81.2044,136.305 85.7044,134.138 90,131.5C 97.6805,129.376 105.181,126.876 112.5,124C 124.447,122.609 136.447,122.109 148.5,122.5 Z"/></g>
<g><path style="opacity:1" fill="#56717d" d="M 144.5,130.5 C 134.448,130.216 124.448,130.55 114.5,131.5C 114.611,130.883 114.944,130.383 115.5,130C 125.342,129.175 135.009,129.342 144.5,130.5 Z"/></g>
<g><path style="opacity:1" fill="#58737e" d="M 144.5,130.5 C 148.475,130.486 151.808,131.819 154.5,134.5C 150.873,133.679 147.54,132.346 144.5,130.5 Z"/></g>
<g><path style="opacity:1" fill="#41494d" d="M 172.5,126.5 C 175.833,127.5 179.167,128.5 182.5,129.5C 188.329,132.341 194.329,135.007 200.5,137.5C 225.226,153.626 241.559,175.959 249.5,204.5C 251.215,219.764 251.882,235.098 251.5,250.5C 251.167,250.5 250.833,250.5 250.5,250.5C 249.346,256.12 248.013,261.786 246.5,267.5C 244.019,270.707 242.685,274.373 242.5,278.5C 240.016,280.794 237.85,283.46 236,286.5C 235.187,288.436 234.687,290.436 234.5,292.5C 233.761,292.369 233.094,292.536 232.5,293C 230.705,297.086 227.872,300.252 224,302.5C 223.51,303.793 223.343,305.127 223.5,306.5C 220.066,309.612 216.733,312.612 213.5,315.5C 211.303,316.845 208.97,318.011 206.5,319C 205.748,319.671 205.414,320.504 205.5,321.5C 204.448,321.351 203.448,321.517 202.5,322C 198.942,324.312 195.609,326.812 192.5,329.5C 189.933,329.721 187.599,330.388 185.5,331.5C 185.5,332.167 185.167,332.5 184.5,332.5C 178.655,334.758 172.655,336.425 166.5,337.5C 165.448,337.649 164.448,337.483 163.5,337C 169.218,335.475 174.218,332.975 178.5,329.5C 179.552,329.649 180.552,329.483 181.5,329C 180.748,328.329 180.414,327.496 180.5,326.5C 183.904,327.9 186.904,327.234 189.5,324.5C 194.203,322.728 198.37,320.061 202,316.5C 202.49,315.207 202.657,313.873 202.5,312.5C 203.166,307.651 203.833,302.651 204.5,297.5C 205.522,297.855 206.189,298.522 206.5,299.5C 206.5,299.833 206.5,300.167 206.5,300.5C 205.883,300.389 205.383,300.056 205,299.5C 204.333,303.833 204.333,308.167 205,312.5C 206.392,309.722 206.892,306.722 206.5,303.5C 207.461,305.265 207.795,307.265 207.5,309.5C 209.38,309.771 210.713,309.104 211.5,307.5C 211.5,306.833 211.833,306.5 212.5,306.5C 215.682,304.807 217.348,302.141 217.5,298.5C 219.414,295.316 220.08,291.649 219.5,287.5C 220.165,289.698 220.832,292.031 221.5,294.5C 230.785,281.586 237.118,267.253 240.5,251.5C 241.829,245.872 242.496,239.872 242.5,233.5C 242.5,227.324 242.166,221.324 241.5,215.5C 238.35,193.697 229.35,174.697 214.5,158.5C 211.833,153.833 208.167,150.167 203.5,147.5C 195.694,142.093 187.694,136.926 179.5,132C 177.846,131.392 176.179,130.892 174.5,130.5C 172.432,129.625 170.432,128.459 168.5,127C 169.793,126.51 171.127,126.343 172.5,126.5 Z"/></g>
<g><path style="opacity:1" fill="#cccecf" d="M 182.5,129.5 C 188.657,129.961 194.323,131.961 199.5,135.5C 200.298,135.957 200.631,136.624 200.5,137.5C 194.329,135.007 188.329,132.341 182.5,129.5 Z"/></g>
<g><path style="opacity:1" fill="#57666d" d="M 95.5,145.5 C 95.2451,147.967 94.2451,149.967 92.5,151.5C 92.5,150.833 92.5,150.167 92.5,149.5C 93.1429,147.924 94.1429,146.59 95.5,145.5 Z"/></g>
<g><path style="opacity:1" fill="#657883" d="M 203.5,147.5 C 208.167,150.167 211.833,153.833 214.5,158.5C 210.5,155.167 206.833,151.5 203.5,147.5 Z"/></g>
<g><path style="opacity:1" fill="#b4def1" d="M 92.5,149.5 C 92.5,150.167 92.5,150.833 92.5,151.5C 92.5,151.833 92.5,152.167 92.5,152.5C 91.7784,152.918 91.2784,153.584 91,154.5C 90.8283,161.346 90.3283,168.013 89.5,174.5C 89.8204,171.102 89.487,167.768 88.5,164.5C 80.9257,169.569 74.0924,175.569 68,182.5C 67.5172,183.448 67.3505,184.448 67.5,185.5C 64.0985,188.895 61.0985,192.562 58.5,196.5C 55.3528,198.313 53.3528,200.98 52.5,204.5C 51.0937,204.973 50.427,205.973 50.5,207.5C 49.5416,207.953 48.7083,208.619 48,209.5C 46.1935,213.918 44.1935,218.251 42,222.5C 41.2627,227.536 40.4294,232.536 39.5,237.5C 38.2826,228.971 38.4493,220.304 40,211.5C 47.5498,182.682 64.3832,161.348 90.5,147.5C 91.7133,147.747 92.38,148.414 92.5,149.5 Z"/></g>
<g><path style="opacity:1" fill="#b6dff3" d="M 214.5,275.5 C 213.925,273.589 212.925,271.922 211.5,270.5C 210.581,267.911 208.914,265.911 206.5,264.5C 202.86,261.527 199.527,258.194 196.5,254.5C 197.167,254.5 197.833,254.5 198.5,254.5C 200.127,256.63 201.96,258.63 204,260.5C 204.414,260.043 204.914,259.709 205.5,259.5C 206.524,260.853 207.857,261.52 209.5,261.5C 209.692,256.688 211.192,252.355 214,248.5C 214.667,237.833 214.667,227.167 214,216.5C 211.703,210.245 209.703,203.912 208,197.5C 205.54,192.971 202.874,188.638 200,184.5C 193.482,175.997 185.649,168.997 176.5,163.5C 176.768,161.901 176.434,160.568 175.5,159.5C 175.081,155.142 173.748,151.142 171.5,147.5C 171.369,146.761 171.536,146.094 172,145.5C 201.491,159.653 219.825,182.653 227,214.5C 230.369,236.645 227.036,257.645 217,277.5C 216.292,276.619 215.458,275.953 214.5,275.5 Z"/></g>
<g><path style="opacity:1" fill="#d2ebf7" d="M 176.5,163.5 C 185.649,168.997 193.482,175.997 200,184.5C 202.874,188.638 205.54,192.971 208,197.5C 209.703,203.912 211.703,210.245 214,216.5C 214.667,227.167 214.667,237.833 214,248.5C 211.192,252.355 209.692,256.688 209.5,261.5C 207.857,261.52 206.524,260.853 205.5,259.5C 204.914,259.709 204.414,260.043 204,260.5C 201.96,258.63 200.127,256.63 198.5,254.5C 203.786,226.374 196.452,202.374 176.5,182.5C 176.5,176.167 176.5,169.833 176.5,163.5 Z"/></g>
<g><path style="opacity:1" fill="#cde7f3" d="M 89.5,174.5 C 87.6203,174.229 86.287,174.896 85.5,176.5C 84.8333,176.5 84.1667,176.5 83.5,176.5C 81.0326,176.755 79.0326,177.755 77.5,179.5C 74.3257,180.01 71.9923,181.677 70.5,184.5C 69.609,185.11 68.609,185.443 67.5,185.5C 67.3505,184.448 67.5172,183.448 68,182.5C 74.0924,175.569 80.9257,169.569 88.5,164.5C 89.487,167.768 89.8204,171.102 89.5,174.5 Z"/></g>
<g><path style="opacity:1" fill="#525c60" d="M 92.5,152.5 C 91.6423,160.132 91.3089,167.799 91.5,175.5C 89.4352,175.517 87.4352,175.85 85.5,176.5C 86.287,174.896 87.6203,174.229 89.5,174.5C 90.3283,168.013 90.8283,161.346 91,154.5C 91.2784,153.584 91.7784,152.918 92.5,152.5 Z"/></g>
<g><path style="opacity:1" fill="#1f1e1c" d="M 144.5,130.5 C 147.54,132.346 150.873,133.679 154.5,134.5C 156.148,135.927 158.148,136.76 160.5,137C 164.036,140.704 167.702,144.204 171.5,147.5C 173.748,151.142 175.081,155.142 175.5,159.5C 175.477,167.183 175.143,174.85 174.5,182.5C 174.5,182.833 174.5,183.167 174.5,183.5C 172.926,185.102 172.259,187.102 172.5,189.5C 170.907,191.658 169.074,193.658 167,195.5C 164.521,199.467 162.354,203.467 160.5,207.5C 158.44,210.24 156.774,213.24 155.5,216.5C 153.75,217.659 152.75,219.326 152.5,221.5C 149.956,222.708 148.622,224.708 148.5,227.5C 151.089,227.539 153.089,226.539 154.5,224.5C 159.438,223.608 164.438,223.274 169.5,223.5C 176.336,226.662 182.003,231.329 186.5,237.5C 187.367,241.329 189.033,244.663 191.5,247.5C 192.811,250.135 194.478,252.469 196.5,254.5C 199.527,258.194 202.86,261.527 206.5,264.5C 207.419,267.089 209.086,269.089 211.5,270.5C 212.925,271.922 213.925,273.589 214.5,275.5C 216.55,279.309 218.216,283.309 219.5,287.5C 220.08,291.649 219.414,295.316 217.5,298.5C 217.451,294.922 216.785,291.589 215.5,288.5C 215.5,288.167 215.5,287.833 215.5,287.5C 215.373,282.768 213.707,278.768 210.5,275.5C 209.928,273.745 209.094,272.078 208,270.5C 201.926,264.468 195.926,258.468 190,252.5C 187.654,246.562 184.487,241.228 180.5,236.5C 178.541,232.874 175.874,229.874 172.5,227.5C 172.389,226.883 172.056,226.383 171.5,226C 167.5,225.333 163.5,225.333 159.5,226C 158.944,226.383 158.611,226.883 158.5,227.5C 152.935,229.575 147.935,232.575 143.5,236.5C 140.863,238.482 139.53,241.148 139.5,244.5C 138.834,247.358 138.167,250.358 137.5,253.5C 136.509,249.555 136.176,245.555 136.5,241.5C 136.67,240.178 136.337,239.011 135.5,238C 138.54,234.74 141.206,231.24 143.5,227.5C 150.483,216.689 157.649,206.022 165,195.5C 165.352,193.753 165.852,192.086 166.5,190.5C 167.67,188.721 169.336,187.721 171.5,187.5C 172.374,179.848 172.541,172.182 172,164.5C 171.434,162.277 170.6,160.277 169.5,158.5C 169.628,156.345 169.128,154.345 168,152.5C 161.265,146.198 153.432,141.865 144.5,139.5C 143.048,138.698 141.382,138.198 139.5,138C 138.929,136.795 138.262,135.628 137.5,134.5C 136.614,135.325 136.281,136.325 136.5,137.5C 129.87,136.454 123.203,136.287 116.5,137C 115.142,137.934 113.808,138.768 112.5,139.5C 102.024,141.982 96.0244,148.649 94.5,159.5C 93.5151,163.634 93.1818,167.968 93.5,172.5C 95.5273,172.662 97.5273,172.495 99.5,172C 100.056,171.617 100.389,171.117 100.5,170.5C 112.687,167.939 123.187,162.273 132,153.5C 132.366,151.548 133.199,149.882 134.5,148.5C 135.451,149.919 135.784,151.585 135.5,153.5C 132.734,156.164 130.067,158.997 127.5,162C 122.157,165.337 116.824,168.67 111.5,172C 89.6387,177.745 71.1387,188.911 56,205.5C 55.1977,209.134 53.3644,212.134 50.5,214.5C 47.5828,219.798 45.4161,225.465 44,231.5C 43.3333,235.167 43.3333,238.833 44,242.5C 45.4763,238.275 46.8096,233.942 48,229.5C 56.5094,217.661 67.0094,207.828 79.5,200C 87.5,196.333 95.5,192.667 103.5,189C 105.879,185.965 108.879,183.631 112.5,182C 116.614,178.561 119.947,174.561 122.5,170C 123.483,169.409 124.15,169.743 124.5,171C 123.804,172.893 122.97,174.726 122,176.5C 115.75,183.088 109.25,189.254 102.5,195C 93.3743,199.396 84.3743,204.063 75.5,209C 63.9519,216.215 54.7852,225.715 48,237.5C 46.8944,241.122 46.5611,244.789 47,248.5C 51.0415,244.29 55.2082,240.29 59.5,236.5C 72.7151,226.968 86.3817,218.134 100.5,210C 103.396,206.934 106.396,204.101 109.5,201.5C 110.794,200.71 111.961,199.71 113,198.5C 113.464,199.094 113.631,199.761 113.5,200.5C 109.904,207.53 108.904,214.863 110.5,222.5C 109.027,223.071 107.36,223.071 105.5,222.5C 105.448,220.097 105.781,217.764 106.5,215.5C 106.678,214.305 107.011,213.138 107.5,212C 107.15,210.743 106.483,210.409 105.5,211C 102.806,213.694 100.14,216.36 97.5,219C 88.8484,224.979 80.1817,230.979 71.5,237C 68.5377,239.781 66.2044,242.948 64.5,246.5C 60.7774,250.92 57.2774,255.586 54,260.5C 52.627,262.695 52.2937,265.029 53,267.5C 53.414,267.043 53.914,266.709 54.5,266.5C 57.1063,260.936 60.4396,255.936 64.5,251.5C 67.8763,248.806 71.543,246.473 75.5,244.5C 79.5575,242.698 83.5575,240.698 87.5,238.5C 88.9317,238.733 89.4317,239.4 89,240.5C 86.2595,241.899 83.7595,243.566 81.5,245.5C 79.9731,245.427 78.9731,246.094 78.5,247.5C 73.7759,249.529 69.7759,252.529 66.5,256.5C 60.4811,260.868 56.1478,266.535 53.5,273.5C 52.5233,276.287 52.19,279.287 52.5,282.5C 51.8333,281.5 51.1667,280.5 50.5,279.5C 50.1373,276.011 49.804,272.511 49.5,269C 50.061,264.386 51.061,259.886 52.5,255.5C 54.7461,252.229 57.0794,248.896 59.5,245.5C 58.6086,244.41 57.6086,244.41 56.5,245.5C 54.0663,247.921 52.0663,250.588 50.5,253.5C 48.7376,254.262 47.7376,255.596 47.5,257.5C 45.1663,259.176 44.1663,261.509 44.5,264.5C 43.5489,265.919 43.2155,267.585 43.5,269.5C 42.6787,272.641 42.1787,275.975 42,279.5C 41.7679,278.263 41.2679,277.263 40.5,276.5C 40.3921,271.13 40.7255,265.797 41.5,260.5C 41.5,259.833 41.5,259.167 41.5,258.5C 42.6431,255.932 42.4764,253.265 41,250.5C 39.8175,240.592 40.8175,230.925 44,221.5C 45.9885,216.7 48.1552,212.034 50.5,207.5C 50.427,205.973 51.0937,204.973 52.5,204.5C 54.8777,202.122 56.8777,199.455 58.5,196.5C 61.0985,192.562 64.0985,188.895 67.5,185.5C 68.609,185.443 69.609,185.11 70.5,184.5C 73.1651,183.148 75.4984,181.482 77.5,179.5C 79.9674,179.245 81.9674,178.245 83.5,176.5C 84.1667,176.5 84.8333,176.5 85.5,176.5C 87.4352,175.85 89.4352,175.517 91.5,175.5C 91.3089,167.799 91.6423,160.132 92.5,152.5C 92.5,152.167 92.5,151.833 92.5,151.5C 94.2451,149.967 95.2451,147.967 95.5,145.5C 95.5394,144.417 95.8728,143.417 96.5,142.5C 99.3174,140.183 101.984,137.683 104.5,135C 107.955,134.102 111.289,132.935 114.5,131.5C 124.448,130.55 134.448,130.216 144.5,130.5 Z"/></g>
<g><path style="opacity:1" fill="#6c6463" d="M 169.5,158.5 C 170.6,160.277 171.434,162.277 172,164.5C 172.541,172.182 172.374,179.848 171.5,187.5C 169.336,187.721 167.67,188.721 166.5,190.5C 166.702,188.05 166.369,185.717 165.5,183.5C 166.404,182.791 166.737,181.791 166.5,180.5C 167.675,181.974 168.675,183.64 169.5,185.5C 170.717,176.492 170.717,167.492 169.5,158.5 Z"/></g>
<g><path style="opacity:1" fill="#908487" d="M 135.5,153.5 C 134.448,158.37 132.781,163.037 130.5,167.5C 123.99,179.196 116.99,190.53 109.5,201.5C 106.396,204.101 103.396,206.934 100.5,210C 86.3817,218.134 72.7151,226.968 59.5,236.5C 55.2082,240.29 51.0415,244.29 47,248.5C 46.5611,244.789 46.8944,241.122 48,237.5C 54.7852,225.715 63.9519,216.215 75.5,209C 84.3743,204.063 93.3743,199.396 102.5,195C 109.25,189.254 115.75,183.088 122,176.5C 122.97,174.726 123.804,172.893 124.5,171C 124.15,169.743 123.483,169.409 122.5,170C 119.947,174.561 116.614,178.561 112.5,182C 108.879,183.631 105.879,185.965 103.5,189C 95.5,192.667 87.5,196.333 79.5,200C 67.0094,207.828 56.5094,217.661 48,229.5C 46.8096,233.942 45.4763,238.275 44,242.5C 43.3333,238.833 43.3333,235.167 44,231.5C 45.4161,225.465 47.5828,219.798 50.5,214.5C 53.3644,212.134 55.1977,209.134 56,205.5C 71.1387,188.911 89.6387,177.745 111.5,172C 116.824,168.67 122.157,165.337 127.5,162C 130.067,158.997 132.734,156.164 135.5,153.5 Z"/></g>
<g><path style="opacity:1" fill="#5d5657" d="M 94.5,159.5 C 94.5,163.5 94.5,167.5 94.5,171.5C 96.5648,171.483 98.5648,171.15 100.5,170.5C 100.389,171.117 100.056,171.617 99.5,172C 97.5273,172.495 95.5273,172.662 93.5,172.5C 93.1818,167.968 93.5151,163.634 94.5,159.5 Z"/></g>
<g><path style="opacity:1" fill="#25231f" d="M 140.5,141.5 C 144.508,154.84 152.008,165.84 163,174.5C 164.394,176.388 165.56,178.388 166.5,180.5C 166.737,181.791 166.404,182.791 165.5,183.5C 164.206,181.093 162.539,178.926 160.5,177C 154.898,172.311 149.398,167.478 144,162.5C 142.37,159.312 141.204,155.979 140.5,152.5C 140.445,148.723 139.445,145.223 137.5,142C 138.176,140.317 139.176,140.15 140.5,141.5 Z"/></g>
<g><path style="opacity:1" fill="#d3bf83" d="M 140.5,152.5 C 141.204,155.979 142.37,159.312 144,162.5C 149.398,167.478 154.898,172.311 160.5,177C 162.539,178.926 164.206,181.093 165.5,183.5C 166.369,185.717 166.702,188.05 166.5,190.5C 165.852,192.086 165.352,193.753 165,195.5C 157.649,206.022 150.483,216.689 143.5,227.5C 140.186,230.231 137.186,233.397 134.5,237C 132.115,237.556 129.782,237.39 127.5,236.5C 125.86,235.68 124.193,234.847 122.5,234C 118.584,229.914 114.584,226.081 110.5,222.5C 108.904,214.863 109.904,207.53 113.5,200.5C 121.098,190.313 127.432,179.313 132.5,167.5C 134.129,165.142 135.295,162.476 136,159.5C 136.109,154.386 136.776,149.386 138,144.5C 138.098,147.522 138.932,150.189 140.5,152.5 Z"/></g>
<g><path style="opacity:1" fill="#93878a" d="M 144.5,139.5 C 153.432,141.865 161.265,146.198 168,152.5C 169.128,154.345 169.628,156.345 169.5,158.5C 170.717,167.492 170.717,176.492 169.5,185.5C 168.675,183.64 167.675,181.974 166.5,180.5C 165.56,178.388 164.394,176.388 163,174.5C 152.008,165.84 144.508,154.84 140.5,141.5C 141.183,139.824 142.517,139.157 144.5,139.5 Z"/></g>
<g><path style="opacity:1" fill="#93888b" d="M 134.5,148.5 C 133.199,149.882 132.366,151.548 132,153.5C 123.187,162.273 112.687,167.939 100.5,170.5C 98.5648,171.15 96.5648,171.483 94.5,171.5C 94.5,167.5 94.5,163.5 94.5,159.5C 96.0244,148.649 102.024,141.982 112.5,139.5C 119.805,138.483 127.139,138.317 134.5,139C 135.428,139.388 136.095,140.055 136.5,141C 135.751,143.497 135.084,145.997 134.5,148.5 Z"/></g>
<g><path style="opacity:1" fill="#605954" d="M 144.5,139.5 C 142.517,139.157 141.183,139.824 140.5,141.5C 139.176,140.15 138.176,140.317 137.5,142C 139.445,145.223 140.445,148.723 140.5,152.5C 138.932,150.189 138.098,147.522 138,144.5C 136.776,149.386 136.109,154.386 136,159.5C 135.295,162.476 134.129,165.142 132.5,167.5C 132.062,166.494 131.396,166.494 130.5,167.5C 132.781,163.037 134.448,158.37 135.5,153.5C 135.784,151.585 135.451,149.919 134.5,148.5C 135.084,145.997 135.751,143.497 136.5,141C 136.095,140.055 135.428,139.388 134.5,139C 127.139,138.317 119.805,138.483 112.5,139.5C 113.808,138.768 115.142,137.934 116.5,137C 123.203,136.287 129.87,136.454 136.5,137.5C 136.281,136.325 136.614,135.325 137.5,134.5C 138.262,135.628 138.929,136.795 139.5,138C 141.382,138.198 143.048,138.698 144.5,139.5 Z"/></g>
<g><path style="opacity:1" fill="#6d797c" d="M 83.5,176.5 C 81.9674,178.245 79.9674,179.245 77.5,179.5C 79.0326,177.755 81.0326,176.755 83.5,176.5 Z"/></g>
<g><path style="opacity:1" fill="#575e60" d="M 77.5,179.5 C 75.4984,181.482 73.1651,183.148 70.5,184.5C 71.9923,181.677 74.3257,180.01 77.5,179.5 Z"/></g>
<g><path style="opacity:1" fill="#9fb2b8" d="M 175.5,159.5 C 176.434,160.568 176.768,161.901 176.5,163.5C 176.5,169.833 176.5,176.167 176.5,182.5C 175.833,182.5 175.167,182.5 174.5,182.5C 175.143,174.85 175.477,167.183 175.5,159.5 Z"/></g>
<g><path style="opacity:1" fill="#e5f0f6" d="M 174.5,182.5 C 175.167,182.5 175.833,182.5 176.5,182.5C 196.452,202.374 203.786,226.374 198.5,254.5C 197.833,254.5 197.167,254.5 196.5,254.5C 194.478,252.469 192.811,250.135 191.5,247.5C 191.657,246.127 191.49,244.793 191,243.5C 189.406,241.474 187.906,239.474 186.5,237.5C 182.003,231.329 176.336,226.662 169.5,223.5C 165.019,222.352 160.352,222.185 155.5,223C 154.944,223.383 154.611,223.883 154.5,224.5C 153.153,225.028 151.819,225.195 150.5,225C 151.823,224.184 152.489,223.017 152.5,221.5C 152.75,219.326 153.75,217.659 155.5,216.5C 158.956,214.597 160.622,211.597 160.5,207.5C 162.354,203.467 164.521,199.467 167,195.5C 169.074,193.658 170.907,191.658 172.5,189.5C 174.074,187.898 174.741,185.898 174.5,183.5C 174.5,183.167 174.5,182.833 174.5,182.5 Z"/></g>
<g><path style="opacity:1" fill="#83898b" d="M 174.5,183.5 C 174.741,185.898 174.074,187.898 172.5,189.5C 172.259,187.102 172.926,185.102 174.5,183.5 Z"/></g>
<g><path style="opacity:1" fill="#2b2825" d="M 132.5,167.5 C 127.432,179.313 121.098,190.313 113.5,200.5C 113.631,199.761 113.464,199.094 113,198.5C 111.961,199.71 110.794,200.71 109.5,201.5C 116.99,190.53 123.99,179.196 130.5,167.5C 131.396,166.494 132.062,166.494 132.5,167.5 Z"/></g>
<g><path style="opacity:1" fill="#57676c" d="M 58.5,196.5 C 56.8777,199.455 54.8777,202.122 52.5,204.5C 53.3528,200.98 55.3528,198.313 58.5,196.5 Z"/></g>
<g><path style="opacity:1" fill="#a4a9aa" d="M 160.5,207.5 C 160.622,211.597 158.956,214.597 155.5,216.5C 156.774,213.24 158.44,210.24 160.5,207.5 Z"/></g>
<g><path style="opacity:1" fill="#cdced0" d="M 249.5,204.5 C 250.165,206.698 250.832,209.031 251.5,211.5C 252.825,224.661 252.825,237.661 251.5,250.5C 251.882,235.098 251.215,219.764 249.5,204.5 Z"/></g>
<g><path style="opacity:1" fill="#2a2a29" d="M 296.5,216.5 C 305.797,220.098 308.964,226.765 306,236.5C 302.792,243.513 297.292,246.513 289.5,245.5C 289.26,248.579 289.593,251.579 290.5,254.5C 287.02,255.806 283.687,255.806 280.5,254.5C 281.824,242 281.824,229.5 280.5,217C 285.823,216.501 291.156,216.334 296.5,216.5 Z"/></g>
<g><path style="opacity:1" fill="#2a2a29" d="M 351.5,216.5 C 357.176,216.334 362.843,216.501 368.5,217C 375.999,220.499 378.833,226.333 377,234.5C 375.981,238.174 374.148,241.341 371.5,244C 373.622,247.626 375.955,251.126 378.5,254.5C 375.167,255.833 371.833,255.833 368.5,254.5C 366.8,251.961 365.3,249.295 364,246.5C 362.989,245.663 361.822,245.33 360.5,245.5C 360.216,248.777 360.549,251.943 361.5,255C 358.118,255.824 354.784,255.657 351.5,254.5C 352.814,241.833 352.814,229.167 351.5,216.5 Z"/></g>
<g><path style="opacity:1" fill="#272827" d="M 388.5,215.5 C 397.167,216.804 405.834,216.804 414.5,215.5C 415.833,218.833 415.833,222.167 414.5,225.5C 411.579,224.593 408.579,224.26 405.5,224.5C 405.192,234.553 405.525,244.553 406.5,254.5C 403.5,255.833 400.5,255.833 397.5,254.5C 398.475,244.553 398.808,234.553 398.5,224.5C 395.167,224.5 391.833,224.5 388.5,224.5C 388.5,221.5 388.5,218.5 388.5,215.5 Z"/></g>
<g><path style="opacity:1" fill="#2a2a29" d="M 443.5,216.5 C 447.121,229.255 451.121,241.922 455.5,254.5C 452.232,255.487 448.898,255.82 445.5,255.5C 445.663,253.143 445.497,250.81 445,248.5C 441.214,247.205 437.38,247.205 433.5,248.5C 432.626,250.747 432.292,253.08 432.5,255.5C 428.958,255.813 425.625,255.479 422.5,254.5C 427.671,242.339 431.338,229.672 433.5,216.5C 436.833,216.5 440.167,216.5 443.5,216.5 Z"/></g>
<g><path style="opacity:1" fill="#2b2c2a" d="M 330.5,216.5 C 337.952,218.788 342.452,223.788 344,231.5C 345.284,239.982 342.784,247.149 336.5,253C 324.141,257.735 316.308,253.568 313,240.5C 312.502,237.183 312.335,233.85 312.5,230.5C 315.29,221.71 321.29,217.044 330.5,216.5 Z"/></g>
<g><path style="opacity:1" fill="#272726" d="M 471.5,216.5 C 472.338,216.842 472.672,217.508 472.5,218.5C 471.506,227.986 471.173,237.652 471.5,247.5C 476.695,247.821 481.695,247.487 486.5,246.5C 487.641,249.64 487.808,252.973 487,256.5C 479.587,255.519 472.087,255.186 464.5,255.5C 464.814,242.783 464.481,230.117 463.5,217.5C 466.086,216.52 468.753,216.187 471.5,216.5 Z"/></g>
<g><path style="opacity:1" fill="#f4d2ca" d="M 330.5,216.5 C 321.29,217.044 315.29,221.71 312.5,230.5C 313.9,219.502 319.9,214.835 330.5,216.5 Z"/></g>
<g><path style="opacity:1" fill="#fdded6" d="M 296.5,216.5 C 291.156,216.334 285.823,216.501 280.5,217C 281.824,229.5 281.824,242 280.5,254.5C 279.505,241.677 279.171,228.677 279.5,215.5C 285.358,215.178 291.025,215.511 296.5,216.5 Z"/></g>
<g><path style="opacity:1" fill="#dcc0ba" d="M 471.5,216.5 C 468.753,216.187 466.086,216.52 463.5,217.5C 464.481,230.117 464.814,242.783 464.5,255.5C 463.883,255.389 463.383,255.056 463,254.5C 462.5,241.504 462.333,228.504 462.5,215.5C 465.713,215.19 468.713,215.523 471.5,216.5 Z"/></g>
<g><path style="opacity:1" fill="#8d8285" d="M 106.5,215.5 C 103.328,220.654 99.9945,225.82 96.5,231C 89.1594,235.242 82.1594,239.742 75.5,244.5C 71.543,246.473 67.8763,248.806 64.5,251.5C 63.506,250.001 63.506,248.334 64.5,246.5C 66.2044,242.948 68.5377,239.781 71.5,237C 80.1817,230.979 88.8484,224.979 97.5,219C 100.14,216.36 102.806,213.694 105.5,211C 106.483,210.409 107.15,210.743 107.5,212C 107.011,213.138 106.678,214.305 106.5,215.5 Z"/></g>
<g><path style="opacity:1" fill="#737779" d="M 169.5,223.5 C 164.438,223.274 159.438,223.608 154.5,224.5C 154.611,223.883 154.944,223.383 155.5,223C 160.352,222.185 165.019,222.352 169.5,223.5 Z"/></g>
<g><path style="opacity:1" fill="#878b8c" d="M 152.5,221.5 C 152.489,223.017 151.823,224.184 150.5,225C 151.819,225.195 153.153,225.028 154.5,224.5C 153.089,226.539 151.089,227.539 148.5,227.5C 148.622,224.708 149.956,222.708 152.5,221.5 Z"/></g>
<g><path style="opacity:1" fill="#fdfcfb" d="M 297.5,226.5 C 298.867,233.128 296.2,236.462 289.5,236.5C 289.5,232.5 289.5,228.5 289.5,224.5C 291.857,224.337 294.19,224.503 296.5,225C 297.056,225.383 297.389,225.883 297.5,226.5 Z"/></g>
<g><path style="opacity:1" fill="#fcfbfb" d="M 334.5,229.5 C 335.524,235.883 333.857,241.383 329.5,246C 328.207,246.49 326.873,246.657 325.5,246.5C 323.016,244.88 321.516,242.547 321,239.5C 318.818,232.204 321.151,227.204 328,224.5C 331.455,224.63 333.622,226.296 334.5,229.5 Z"/></g>
<g><path style="opacity:1" fill="#fcf4f2" d="M 360.5,224.5 C 368.505,223.342 371.339,226.675 369,234.5C 366.804,237.125 363.97,238.125 360.5,237.5C 360.5,233.167 360.5,228.833 360.5,224.5 Z"/></g>
<g><path style="opacity:1" fill="#5f5948" d="M 172.5,227.5 C 167.833,226.167 163.167,226.167 158.5,227.5C 158.611,226.883 158.944,226.383 159.5,226C 163.5,225.333 167.5,225.333 171.5,226C 172.056,226.383 172.389,226.883 172.5,227.5 Z"/></g>
<g><path style="opacity:1" fill="#2c2925" d="M 106.5,215.5 C 105.781,217.764 105.448,220.097 105.5,222.5C 107.36,223.071 109.027,223.071 110.5,222.5C 114.584,226.081 118.584,229.914 122.5,234C 124.193,234.847 125.86,235.68 127.5,236.5C 129.588,238.02 131.922,239.02 134.5,239.5C 131.833,239.5 129.167,239.5 126.5,239.5C 122.561,237.554 118.894,235.221 115.5,232.5C 113.372,229.87 111.039,227.37 108.5,225C 107.184,224.472 106.517,224.972 106.5,226.5C 103.399,229.835 100.399,233.335 97.5,237C 93.5528,238.431 90.2195,240.764 87.5,244C 85.4817,244.505 83.4817,245.005 81.5,245.5C 83.7595,243.566 86.2595,241.899 89,240.5C 89.4317,239.4 88.9317,238.733 87.5,238.5C 83.5575,240.698 79.5575,242.698 75.5,244.5C 82.1594,239.742 89.1594,235.242 96.5,231C 99.9945,225.82 103.328,220.654 106.5,215.5 Z"/></g>
<g><path style="opacity:1" fill="#91855e" d="M 115.5,232.5 C 112.5,230.5 109.5,228.5 106.5,226.5C 106.517,224.972 107.184,224.472 108.5,225C 111.039,227.37 113.372,229.87 115.5,232.5 Z"/></g>
<g><path style="opacity:1" fill="#d4c185" d="M 106.5,226.5 C 109.5,228.5 112.5,230.5 115.5,232.5C 118.894,235.221 122.561,237.554 126.5,239.5C 128.438,241.163 130.772,241.829 133.5,241.5C 132.911,245.971 133.577,249.971 135.5,253.5C 139.361,261.189 145.361,266.689 153.5,270C 156.729,273.399 160.062,276.565 163.5,279.5C 164.209,280.404 165.209,280.737 166.5,280.5C 165.833,283.167 165.167,285.833 164.5,288.5C 163.883,288.611 163.383,288.944 163,289.5C 161.053,285.724 158.553,282.39 155.5,279.5C 154.09,278.172 152.924,278.505 152,280.5C 151.503,278.19 151.337,275.857 151.5,273.5C 148.708,273.452 146.875,274.785 146,277.5C 144.368,281.592 144.202,285.592 145.5,289.5C 146.786,292.117 148.453,294.45 150.5,296.5C 150.279,298.664 149.279,300.33 147.5,301.5C 138.631,307.285 129.631,313.118 120.5,319C 117.882,321.106 115.882,323.606 114.5,326.5C 113.5,326.5 112.5,326.5 111.5,326.5C 111.435,323.572 110.768,320.905 109.5,318.5C 110.161,313.644 109.161,309.31 106.5,305.5C 106.975,302.687 105.975,300.687 103.5,299.5C 102.55,296.885 100.883,294.885 98.5,293.5C 97.7494,292.427 96.7494,292.26 95.5,293C 96.9856,296.633 98.6522,300.133 100.5,303.5C 103.037,312.647 106.037,321.647 109.5,330.5C 110.959,330.567 112.292,330.234 113.5,329.5C 116.643,329.031 118.977,327.364 120.5,324.5C 122.609,323.609 124.609,322.442 126.5,321C 128.657,320.922 130.657,320.755 132.5,320.5C 133.366,317.308 135.032,314.641 137.5,312.5C 146.277,305.272 155.61,298.772 165.5,293C 167.977,288.905 170.81,285.071 174,281.5C 174.098,279.381 174.931,277.714 176.5,276.5C 177.5,278.5 178.5,280.5 179.5,282.5C 180.852,281.476 182.185,280.476 183.5,279.5C 185.02,276.472 186.686,273.472 188.5,270.5C 191.354,280.77 188.687,289.27 180.5,296C 176.561,298.259 172.561,300.426 168.5,302.5C 166.395,304.592 164.728,306.925 163.5,309.5C 158.755,314.904 154.422,320.571 150.5,326.5C 147.936,329.28 145.603,332.28 143.5,335.5C 143.5,335.833 143.5,336.167 143.5,336.5C 141.856,336.81 140.856,337.81 140.5,339.5C 132.821,339.404 125.154,339.07 117.5,338.5C 106.139,336.821 95.1385,333.655 84.5,329C 83.8333,328 83.1667,327 82.5,326C 76.3898,323.779 70.7231,320.779 65.5,317C 64.1772,316.184 63.5106,315.017 63.5,313.5C 64.0967,313.265 64.4301,312.765 64.5,312C 61.1732,304.864 59.0066,297.364 58,289.5C 54.2296,284.882 52.7296,279.549 53.5,273.5C 56.1478,266.535 60.4811,260.868 66.5,256.5C 70.8664,253.984 74.8664,250.984 78.5,247.5C 78.9731,246.094 79.9731,245.427 81.5,245.5C 83.4817,245.005 85.4817,244.505 87.5,244C 90.2195,240.764 93.5528,238.431 97.5,237C 100.399,233.335 103.399,229.835 106.5,226.5 Z"/></g>
<g><path style="opacity:1" fill="#ecddab" d="M 180.5,236.5 C 184.487,241.228 187.654,246.562 190,252.5C 195.926,258.468 201.926,264.468 208,270.5C 209.094,272.078 209.928,273.745 210.5,275.5C 211.787,279.705 213.454,283.705 215.5,287.5C 215.5,287.833 215.5,288.167 215.5,288.5C 215.666,293.179 215.499,297.845 215,302.5C 213.519,303.471 212.685,304.804 212.5,306.5C 211.833,306.5 211.5,306.833 211.5,307.5C 210.504,307.414 209.671,307.748 209,308.5C 208.943,305.149 208.109,302.149 206.5,299.5C 206.189,298.522 205.522,297.855 204.5,297.5C 203.833,302.651 203.166,307.651 202.5,312.5C 200.868,317.115 197.535,319.449 192.5,319.5C 190.147,313.468 187.813,307.468 185.5,301.5C 185.337,299.143 185.503,296.81 186,294.5C 189.186,292.161 191.352,289.161 192.5,285.5C 193.234,284.292 193.567,282.959 193.5,281.5C 195.651,275.819 194.318,270.986 189.5,267C 187.633,266.289 186.133,266.789 185,268.5C 184.059,271.154 183.226,273.821 182.5,276.5C 180.088,276.306 179.088,274.973 179.5,272.5C 175.503,271.668 172.836,273.168 171.5,277C 169.167,277.667 166.833,277.667 164.5,277C 160.491,274.29 157.158,270.957 154.5,267C 150.996,265.082 147.663,262.916 144.5,260.5C 142.095,258.358 140.762,255.691 140.5,252.5C 140.159,246.872 141.159,241.539 143.5,236.5C 147.176,234.768 150.843,234.101 154.5,234.5C 154.297,232.61 154.963,231.11 156.5,230C 165.891,227.204 173.891,229.371 180.5,236.5 Z"/></g>
<g><path style="opacity:1" fill="#f4d3cc" d="M 443.5,216.5 C 440.167,216.5 436.833,216.5 433.5,216.5C 431.338,229.672 427.671,242.339 422.5,254.5C 421.957,254.44 421.624,254.107 421.5,253.5C 425.018,244.771 427.852,235.771 430,226.5C 431.108,222.914 431.608,219.247 431.5,215.5C 435.702,215.183 439.702,215.517 443.5,216.5 Z"/></g>
<g><path style="opacity:1" fill="#cfc197" d="M 172.5,227.5 C 175.874,229.874 178.541,232.874 180.5,236.5C 173.891,229.371 165.891,227.204 156.5,230C 154.963,231.11 154.297,232.61 154.5,234.5C 150.843,234.101 147.176,234.768 143.5,236.5C 147.935,232.575 152.935,229.575 158.5,227.5C 163.167,226.167 167.833,226.167 172.5,227.5 Z"/></g>
<g><path style="opacity:1" fill="#e1c2bb" d="M 297.5,226.5 C 299.94,229.261 300.107,232.261 298,235.5C 295.302,237.673 292.469,238.006 289.5,236.5C 296.2,236.462 298.867,233.128 297.5,226.5 Z"/></g>
<g><path style="opacity:1" fill="#f0e3df" d="M 438.5,230.5 C 440.862,232.919 441.862,235.919 441.5,239.5C 439.833,239.5 438.167,239.5 436.5,239.5C 436.7,236.37 437.366,233.37 438.5,230.5 Z"/></g>
<g><path style="opacity:1" fill="#5b543e" d="M 143.5,227.5 C 141.206,231.24 138.54,234.74 135.5,238C 136.337,239.011 136.67,240.178 136.5,241.5C 136.167,241.5 135.833,241.5 135.5,241.5C 135.672,240.508 135.338,239.842 134.5,239.5C 131.922,239.02 129.588,238.02 127.5,236.5C 129.782,237.39 132.115,237.556 134.5,237C 137.186,233.397 140.186,230.231 143.5,227.5 Z"/></g>
<g><path style="opacity:1" fill="#77929e" d="M 50.5,207.5 C 48.1552,212.034 45.9885,216.7 44,221.5C 40.8175,230.925 39.8175,240.592 41,250.5C 42.4764,253.265 42.6431,255.932 41.5,258.5C 39.7753,251.651 39.1086,244.651 39.5,237.5C 40.4294,232.536 41.2627,227.536 42,222.5C 44.1935,218.251 46.1935,213.918 48,209.5C 48.7083,208.619 49.5416,207.953 50.5,207.5 Z"/></g>
<g><path style="opacity:1" fill="#a39568" d="M 126.5,239.5 C 129.167,239.5 131.833,239.5 134.5,239.5C 135.338,239.842 135.672,240.508 135.5,241.5C 134.436,245.441 134.436,249.441 135.5,253.5C 133.577,249.971 132.911,245.971 133.5,241.5C 130.772,241.829 128.438,241.163 126.5,239.5 Z"/></g>
<g><path style="opacity:1" fill="#ebcdc6" d="M 334.5,229.5 C 337.761,235.93 336.761,241.763 331.5,247C 329.288,247.789 327.288,247.622 325.5,246.5C 326.873,246.657 328.207,246.49 329.5,246C 333.857,241.383 335.524,235.883 334.5,229.5 Z"/></g>
<g><path style="opacity:1" fill="#6a6f6f" d="M 186.5,237.5 C 187.906,239.474 189.406,241.474 191,243.5C 191.49,244.793 191.657,246.127 191.5,247.5C 189.033,244.663 187.367,241.329 186.5,237.5 Z"/></g>
<g><path style="opacity:1" fill="#e3d0cb" d="M 472.5,218.5 C 472.5,227.833 472.5,237.167 472.5,246.5C 477.416,246.347 482.083,246.347 486.5,246.5C 481.695,247.487 476.695,247.821 471.5,247.5C 471.173,237.652 471.506,227.986 472.5,218.5 Z"/></g>
<g><path style="opacity:1" fill="#7b7150" d="M 78.5,247.5 C 74.8664,250.984 70.8664,253.984 66.5,256.5C 69.7759,252.529 73.7759,249.529 78.5,247.5 Z"/></g>
<g><path style="opacity:1" fill="#aba17f" d="M 143.5,236.5 C 141.159,241.539 140.159,246.872 140.5,252.5C 139.527,250.052 139.194,247.385 139.5,244.5C 139.53,241.148 140.863,238.482 143.5,236.5 Z"/></g>
<g><path style="opacity:1" fill="#5e6c70" d="M 52.5,255.5 C 54.1897,251.488 53.523,250.822 50.5,253.5C 52.0663,250.588 54.0663,247.921 56.5,245.5C 57.6086,244.41 58.6086,244.41 59.5,245.5C 57.0794,248.896 54.7461,252.229 52.5,255.5 Z"/></g>
<g><path style="opacity:1" fill="#657985" d="M 241.5,215.5 C 242.166,221.324 242.5,227.324 242.5,233.5C 242.496,239.872 241.829,245.872 240.5,251.5C 241.309,239.518 241.642,227.518 241.5,215.5 Z"/></g>
<g><path style="opacity:1" fill="#b7babb" d="M 250.5,250.5 C 250.868,256.689 249.535,262.355 246.5,267.5C 248.013,261.786 249.346,256.12 250.5,250.5 Z"/></g>
<g><path style="opacity:1" fill="#6d6567" d="M 64.5,246.5 C 63.506,248.334 63.506,250.001 64.5,251.5C 60.4396,255.936 57.1063,260.936 54.5,266.5C 53.914,266.709 53.414,267.043 53,267.5C 52.2937,265.029 52.627,262.695 54,260.5C 57.2774,255.586 60.7774,250.92 64.5,246.5 Z"/></g>
<g><path style="opacity:1" fill="#607179" d="M 47.5,257.5 C 47.0652,260.157 46.0652,262.491 44.5,264.5C 44.1663,261.509 45.1663,259.176 47.5,257.5 Z"/></g>
<g><path style="opacity:1" fill="#5e6f77" d="M 52.5,255.5 C 51.061,259.886 50.061,264.386 49.5,269C 49.804,272.511 50.1373,276.011 50.5,279.5C 49.7321,278.737 49.2321,277.737 49,276.5C 48.3333,271.5 48.3333,266.5 49,261.5C 49.941,259.273 51.1077,257.273 52.5,255.5 Z"/></g>
<g><path style="opacity:1" fill="#4b4637" d="M 193.5,281.5 C 193.909,277.501 193.075,273.834 191,270.5C 190.833,273 190.667,275.5 190.5,278C 190.525,280.929 191.191,283.429 192.5,285.5C 191.352,289.161 189.186,292.161 186,294.5C 185.503,296.81 185.337,299.143 185.5,301.5C 185.5,302.833 185.5,304.167 185.5,305.5C 184.686,303.369 184.186,301.036 184,298.5C 183.503,301.146 183.336,303.813 183.5,306.5C 182.527,304.052 182.194,301.385 182.5,298.5C 180.62,298.229 179.287,298.896 178.5,300.5C 173.656,300.952 172.656,302.952 175.5,306.5C 173.224,306.244 172.057,304.91 172,302.5C 169.033,304.63 166.2,306.963 163.5,309.5C 164.728,306.925 166.395,304.592 168.5,302.5C 172.561,300.426 176.561,298.259 180.5,296C 188.687,289.27 191.354,280.77 188.5,270.5C 186.686,273.472 185.02,276.472 183.5,279.5C 183.737,278.209 183.404,277.209 182.5,276.5C 183.226,273.821 184.059,271.154 185,268.5C 186.133,266.789 187.633,266.289 189.5,267C 194.318,270.986 195.651,275.819 193.5,281.5 Z"/></g>
<g><path style="opacity:1" fill="#57666b" d="M 206.5,264.5 C 208.914,265.911 210.581,267.911 211.5,270.5C 209.086,269.089 207.419,267.089 206.5,264.5 Z"/></g>
<g><path style="opacity:1" fill="#587480" d="M 41.5,260.5 C 40.7255,265.797 40.3921,271.13 40.5,276.5C 39.3516,272.019 39.1849,267.352 40,262.5C 40.2784,261.584 40.7784,260.918 41.5,260.5 Z"/></g>
<g><path style="opacity:1" fill="#454132" d="M 155.5,279.5 C 153.071,280.265 151.738,281.931 151.5,284.5C 150.325,283.026 149.325,281.36 148.5,279.5C 147.571,280.689 147.238,282.022 147.5,283.5C 146.883,283.389 146.383,283.056 146,282.5C 145.503,284.81 145.337,287.143 145.5,289.5C 144.202,285.592 144.368,281.592 146,277.5C 146.875,274.785 148.708,273.452 151.5,273.5C 151.337,275.857 151.503,278.19 152,280.5C 152.924,278.505 154.09,278.172 155.5,279.5 Z"/></g>
<g><path style="opacity:1" fill="#181715" d="M 193.5,281.5 C 193.567,282.959 193.234,284.292 192.5,285.5C 191.191,283.429 190.525,280.929 190.5,278C 190.667,275.5 190.833,273 191,270.5C 193.075,273.834 193.909,277.501 193.5,281.5 Z"/></g>
<g><path style="opacity:1" fill="#3f4f55" d="M 43.5,269.5 C 43.3345,273.514 43.5012,277.514 44,281.5C 46.4069,284.795 47.4069,288.462 47,292.5C 46,291.5 45,290.5 44,289.5C 42.7177,285.16 41.5511,280.827 40.5,276.5C 41.2679,277.263 41.7679,278.263 42,279.5C 42.1787,275.975 42.6787,272.641 43.5,269.5 Z"/></g>
<g><path style="opacity:1" fill="#a09575" d="M 210.5,275.5 C 213.707,278.768 215.373,282.768 215.5,287.5C 213.454,283.705 211.787,279.705 210.5,275.5 Z"/></g>
<g><path style="opacity:1" fill="#babcbe" d="M 242.5,278.5 C 242.643,280.262 242.309,281.929 241.5,283.5C 238.63,286.235 236.297,289.235 234.5,292.5C 234.687,290.436 235.187,288.436 236,286.5C 237.85,283.46 240.016,280.794 242.5,278.5 Z"/></g>
<g><path style="opacity:1" fill="#d3c79b" d="M 151.5,284.5 C 152.754,288.31 153.754,288.31 154.5,284.5C 155.675,284.281 156.675,284.614 157.5,285.5C 159.13,288.276 159.797,291.276 159.5,294.5C 157.4,294.477 155.567,295.144 154,296.5C 150.241,292.982 148.074,288.649 147.5,283.5C 147.238,282.022 147.571,280.689 148.5,279.5C 149.325,281.36 150.325,283.026 151.5,284.5 Z"/></g>
<g><path style="opacity:1" fill="#393a34" d="M 53.5,273.5 C 52.7296,279.549 54.2296,284.882 58,289.5C 59.0066,297.364 61.1732,304.864 64.5,312C 64.4301,312.765 64.0967,313.265 63.5,313.5C 61.1394,311.806 59.1394,309.806 57.5,307.5C 55.9824,301.305 55.1491,294.972 55,288.5C 52.9614,287.022 52.1281,285.022 52.5,282.5C 52.19,279.287 52.5233,276.287 53.5,273.5 Z"/></g>
<g><path style="opacity:1" fill="#2e2b23" d="M 135.5,241.5 C 135.833,241.5 136.167,241.5 136.5,241.5C 136.176,245.555 136.509,249.555 137.5,253.5C 138.167,250.358 138.834,247.358 139.5,244.5C 139.194,247.385 139.527,250.052 140.5,252.5C 140.762,255.691 142.095,258.358 144.5,260.5C 147.663,262.916 150.996,265.082 154.5,267C 157.158,270.957 160.491,274.29 164.5,277C 166.833,277.667 169.167,277.667 171.5,277C 172.836,273.168 175.503,271.668 179.5,272.5C 179.088,274.973 180.088,276.306 182.5,276.5C 183.404,277.209 183.737,278.209 183.5,279.5C 182.185,280.476 180.852,281.476 179.5,282.5C 178.5,280.5 177.5,278.5 176.5,276.5C 174.931,277.714 174.098,279.381 174,281.5C 170.81,285.071 167.977,288.905 165.5,293C 155.61,298.772 146.277,305.272 137.5,312.5C 131.65,316.257 125.983,320.257 120.5,324.5C 118.606,325.048 116.94,326.048 115.5,327.5C 114.893,327.376 114.56,327.043 114.5,326.5C 115.882,323.606 117.882,321.106 120.5,319C 129.631,313.118 138.631,307.285 147.5,301.5C 150.906,301.006 151.906,299.339 150.5,296.5C 148.453,294.45 146.786,292.117 145.5,289.5C 145.337,287.143 145.503,284.81 146,282.5C 146.383,283.056 146.883,283.389 147.5,283.5C 148.074,288.649 150.241,292.982 154,296.5C 155.567,295.144 157.4,294.477 159.5,294.5C 159.797,291.276 159.13,288.276 157.5,285.5C 156.675,284.614 155.675,284.281 154.5,284.5C 153.754,288.31 152.754,288.31 151.5,284.5C 151.738,281.931 153.071,280.265 155.5,279.5C 158.553,282.39 161.053,285.724 163,289.5C 163.383,288.944 163.883,288.611 164.5,288.5C 166.202,286.789 167.535,284.789 168.5,282.5C 167.927,279.915 166.261,278.915 163.5,279.5C 160.062,276.565 156.729,273.399 153.5,270C 145.361,266.689 139.361,261.189 135.5,253.5C 134.436,249.441 134.436,245.441 135.5,241.5 Z"/></g>
<g><path style="opacity:1" fill="#776d4e" d="M 163.5,279.5 C 166.261,278.915 167.927,279.915 168.5,282.5C 167.535,284.789 166.202,286.789 164.5,288.5C 165.167,285.833 165.833,283.167 166.5,280.5C 165.209,280.737 164.209,280.404 163.5,279.5 Z"/></g>
<g><path style="opacity:1" fill="#9d9378" d="M 215.5,288.5 C 216.785,291.589 217.451,294.922 217.5,298.5C 217.348,302.141 215.682,304.807 212.5,306.5C 212.685,304.804 213.519,303.471 215,302.5C 215.499,297.845 215.666,293.179 215.5,288.5 Z"/></g>
<g><path style="opacity:1" fill="#24221d" d="M 98.5,293.5 C 100.883,294.885 102.55,296.885 103.5,299.5C 104.508,301.544 105.508,303.544 106.5,305.5C 109.161,309.31 110.161,313.644 109.5,318.5C 109.704,321.518 110.037,324.518 110.5,327.5C 112.179,327.285 113.179,327.952 113.5,329.5C 112.292,330.234 110.959,330.567 109.5,330.5C 106.037,321.647 103.037,312.647 100.5,303.5C 100.487,300.31 99.4871,297.476 97.5,295C 97.5699,294.235 97.9033,293.735 98.5,293.5 Z"/></g>
<g><path style="opacity:1" fill="#817653" d="M 98.5,293.5 C 97.9033,293.735 97.5699,294.235 97.5,295C 99.4871,297.476 100.487,300.31 100.5,303.5C 98.6522,300.133 96.9856,296.633 95.5,293C 96.7494,292.26 97.7494,292.427 98.5,293.5 Z"/></g>
<g><path style="opacity:1" fill="#6f664a" d="M 150.5,296.5 C 151.906,299.339 150.906,301.006 147.5,301.5C 149.279,300.33 150.279,298.664 150.5,296.5 Z"/></g>
<g><path style="opacity:1" fill="#b3b6b7" d="M 234.5,292.5 C 233.699,294.042 233.366,295.708 233.5,297.5C 232.325,297.281 231.325,297.614 230.5,298.5C 227.762,300.982 225.429,303.649 223.5,306.5C 223.343,305.127 223.51,303.793 224,302.5C 227.872,300.252 230.705,297.086 232.5,293C 233.094,292.536 233.761,292.369 234.5,292.5 Z"/></g>
<g><path style="opacity:1" fill="#5c553e" d="M 103.5,299.5 C 105.975,300.687 106.975,302.687 106.5,305.5C 105.508,303.544 104.508,301.544 103.5,299.5 Z"/></g>
<g><path style="opacity:1" fill="#f0e2b0" d="M 175.5,306.5 C 172.656,302.952 173.656,300.952 178.5,300.5C 179.496,300.586 180.329,300.252 181,299.5C 181.667,302.5 181.667,305.5 181,308.5C 179.275,307.536 177.441,306.869 175.5,306.5 Z"/></g>
<g><path style="opacity:1" fill="#161614" d="M 206.5,300.5 C 206.5,301.5 206.5,302.5 206.5,303.5C 206.892,306.722 206.392,309.722 205,312.5C 204.333,308.167 204.333,303.833 205,299.5C 205.383,300.056 205.883,300.389 206.5,300.5 Z"/></g>
<g><path style="opacity:1" fill="#afa685" d="M 206.5,299.5 C 208.109,302.149 208.943,305.149 209,308.5C 209.671,307.748 210.504,307.414 211.5,307.5C 210.713,309.104 209.38,309.771 207.5,309.5C 207.795,307.265 207.461,305.265 206.5,303.5C 206.5,302.5 206.5,301.5 206.5,300.5C 206.5,300.167 206.5,299.833 206.5,299.5 Z"/></g>
<g><path style="opacity:1" fill="#b8af8a" d="M 183.5,306.5 C 183.785,308.288 183.452,309.955 182.5,311.5C 179.711,310.367 177.378,308.7 175.5,306.5C 177.441,306.869 179.275,307.536 181,308.5C 181.667,305.5 181.667,302.5 181,299.5C 180.329,300.252 179.496,300.586 178.5,300.5C 179.287,298.896 180.62,298.229 182.5,298.5C 182.194,301.385 182.527,304.052 183.5,306.5 Z"/></g>
<g><path style="opacity:1" fill="#20201d" d="M 185.5,305.5 C 186.932,310.383 188.598,315.216 190.5,320C 190.164,321.03 189.497,321.53 188.5,321.5C 186.012,316.701 182.012,313.701 176.5,312.5C 175.415,310.413 173.749,309.08 171.5,308.5C 170.458,307.209 169.292,307.209 168,308.5C 167.235,310.066 167.402,311.399 168.5,312.5C 169.08,314.749 170.413,316.415 172.5,317.5C 174.932,320.688 177.599,323.688 180.5,326.5C 180.414,327.496 180.748,328.329 181.5,329C 180.552,329.483 179.552,329.649 178.5,329.5C 178.5,328.833 178.167,328.5 177.5,328.5C 175.027,326.857 173.027,324.69 171.5,322C 168.946,319.937 166.28,318.103 163.5,316.5C 159.849,318.996 157.016,322.329 155,326.5C 153.242,328.765 151.075,330.432 148.5,331.5C 149.167,329.833 149.833,328.167 150.5,326.5C 154.422,320.571 158.755,314.904 163.5,309.5C 166.2,306.963 169.033,304.63 172,302.5C 172.057,304.91 173.224,306.244 175.5,306.5C 177.378,308.7 179.711,310.367 182.5,311.5C 183.452,309.955 183.785,308.288 183.5,306.5C 183.336,303.813 183.503,301.146 184,298.5C 184.186,301.036 184.686,303.369 185.5,305.5 Z"/></g>
<g><path style="opacity:1" fill="#5d5846" d="M 168.5,312.5 C 170.587,313.585 171.92,315.251 172.5,317.5C 170.413,316.415 169.08,314.749 168.5,312.5 Z"/></g>
<g><path style="opacity:1" fill="#7e775e" d="M 171.5,308.5 C 173.749,309.08 175.415,310.413 176.5,312.5C 174.251,311.92 172.585,310.587 171.5,308.5 Z"/></g>
<g><path style="opacity:1" fill="#e4d6a7" d="M 171.5,308.5 C 172.585,310.587 174.251,311.92 176.5,312.5C 182.012,313.701 186.012,316.701 188.5,321.5C 189.11,322.391 189.443,323.391 189.5,324.5C 186.904,327.234 183.904,327.9 180.5,326.5C 177.599,323.688 174.932,320.688 172.5,317.5C 171.92,315.251 170.587,313.585 168.5,312.5C 167.402,311.399 167.235,310.066 168,308.5C 169.292,307.209 170.458,307.209 171.5,308.5 Z"/></g>
<g><path style="opacity:1" fill="#a7996c" d="M 137.5,312.5 C 135.032,314.641 133.366,317.308 132.5,320.5C 130.657,320.755 128.657,320.922 126.5,321C 124.609,322.442 122.609,323.609 120.5,324.5C 125.983,320.257 131.65,316.257 137.5,312.5 Z"/></g>
<g><path style="opacity:1" fill="#b9ad8b" d="M 185.5,301.5 C 187.813,307.468 190.147,313.468 192.5,319.5C 197.535,319.449 200.868,317.115 202.5,312.5C 202.657,313.873 202.49,315.207 202,316.5C 198.37,320.061 194.203,322.728 189.5,324.5C 189.443,323.391 189.11,322.391 188.5,321.5C 189.497,321.53 190.164,321.03 190.5,320C 188.598,315.216 186.932,310.383 185.5,305.5C 185.5,304.167 185.5,302.833 185.5,301.5 Z"/></g>
<g><path style="opacity:1" fill="#bfc1c2" d="M 213.5,315.5 C 211.944,318.948 209.277,320.948 205.5,321.5C 205.414,320.504 205.748,319.671 206.5,319C 208.97,318.011 211.303,316.845 213.5,315.5 Z"/></g>
<g><path style="opacity:1" fill="#98d0e9" d="M 177.5,328.5 C 167.221,335.97 155.554,339.137 142.5,338C 143.056,337.617 143.389,337.117 143.5,336.5C 143.5,336.167 143.5,335.833 143.5,335.5C 146.4,335.592 148.067,334.259 148.5,331.5C 151.075,330.432 153.242,328.765 155,326.5C 157.016,322.329 159.849,318.996 163.5,316.5C 166.28,318.103 168.946,319.937 171.5,322C 173.027,324.69 175.027,326.857 177.5,328.5 Z"/></g>
<g><path style="opacity:1" fill="#6c644b" d="M 109.5,318.5 C 110.768,320.905 111.435,323.572 111.5,326.5C 112.5,326.5 113.5,326.5 114.5,326.5C 114.56,327.043 114.893,327.376 115.5,327.5C 116.94,326.048 118.606,325.048 120.5,324.5C 118.977,327.364 116.643,329.031 113.5,329.5C 113.179,327.952 112.179,327.285 110.5,327.5C 110.037,324.518 109.704,321.518 109.5,318.5 Z"/></g>
<g><path style="opacity:1" fill="#93989a" d="M 192.5,329.5 C 190.562,331.163 188.228,331.829 185.5,331.5C 187.599,330.388 189.933,329.721 192.5,329.5 Z"/></g>
<g><path style="opacity:1" fill="#737059" d="M 150.5,326.5 C 149.833,328.167 149.167,329.833 148.5,331.5C 148.067,334.259 146.4,335.592 143.5,335.5C 145.603,332.28 147.936,329.28 150.5,326.5 Z"/></g>
<g><path style="opacity:1" fill="#cdcfd0" d="M 184.5,332.5 C 184.063,334.074 183.063,335.241 181.5,336C 178.16,336.453 174.826,336.953 171.5,337.5C 169.714,337.696 168.381,338.529 167.5,340C 164.518,340.498 161.518,340.665 158.5,340.5C 160.857,338.902 163.523,337.902 166.5,337.5C 172.655,336.425 178.655,334.758 184.5,332.5 Z"/></g>
<g><path style="opacity:1" fill="#66747c" d="M 177.5,328.5 C 178.167,328.5 178.5,328.833 178.5,329.5C 174.218,332.975 169.218,335.475 163.5,337C 164.448,337.483 165.448,337.649 166.5,337.5C 163.523,337.902 160.857,338.902 158.5,340.5C 152.31,340.823 146.31,340.49 140.5,339.5C 140.856,337.81 141.856,336.81 143.5,336.5C 143.389,337.117 143.056,337.617 142.5,338C 155.554,339.137 167.221,335.97 177.5,328.5 Z"/></g>
<g><path style="opacity:1" fill="#e5e2db" d="M 117.5,338.5 C 125.154,339.07 132.821,339.404 140.5,339.5C 146.31,340.49 152.31,340.823 158.5,340.5C 148.008,341.659 137.341,341.825 126.5,341C 123.008,341.07 120.008,340.237 117.5,338.5 Z"/></g>
</svg>
